<svg xmlns="http://www.w3.org/2000/svg" viewBox="0 0 396 184"
     width="396" height="184" role="img"
     aria-label="One object O1 resting on a surface"
     style="max-width:100%;height:auto;color:currentColor;">
  <!-- Object O1 -->
  <g>
    <ellipse cx="200" cy="80" rx="80" ry="80"
             fill="#fff2cc" stroke="#d6b656" stroke-width="2"/>
    <text x="200" y="88" text-anchor="middle"
          font-family="Helvetica, sans-serif" font-size="40"
          font-weight="700" fill="currentColor">A</text>
  </g>

  <!-- Surface line (theme-aware) -->
  <path d="M 10 160 L 390 160"
        fill="none" stroke="currentColor" stroke-width="6"
        stroke-linecap="round"/>

  <!-- Surface hatching (theme-aware) -->
  <g fill="none" stroke="currentColor" stroke-width="2"
     stroke-dasharray="6 6">
    <path d="M 0 180 L 20 160"/>
    <path d="M 20 180 L 40 160"/>
    <path d="M 40 180 L 60 160"/>
    <path d="M 60 180 L 80 160"/>
    <path d="M 80 180 L 100 160"/>
    <path d="M 100 180 L 120 160"/>
    <path d="M 120 180 L 140 160"/>
    <path d="M 140 180 L 160 160"/>
    <path d="M 160 180 L 180 160"/>
    <path d="M 180 180 L 200 160"/>
    <path d="M 200 180 L 220 160"/>
    <path d="M 220 180 L 240 160"/>
    <path d="M 240 180 L 260 160"/>
    <path d="M 260 180 L 280 160"/>
    <path d="M 280 180 L 300 160"/>
    <path d="M 300 180 L 320 160"/>
    <path d="M 320 180 L 340 160"/>
    <path d="M 340 180 L 360 160"/>
    <path d="M 360 180 L 380 160"/>
  </g>
</svg>
